<svg xmlns="http://www.w3.org/2000/svg" width="24" height="24" viewBox="0 0 24 24">
  <g id="ic_24_home" transform="translate(-285 -41)">
    <g id="keylines" transform="translate(284 40)">
      <rect id="box" width="24" height="24" transform="translate(1 1)" fill="none"/>
      <path id="Path_1020" data-name="Path 1020" d="M1.1,1.1,24.9,24.9m0-23.8L1.1,24.9" fill="none"/>
      <circle id="Ellipse_90" data-name="Ellipse 90" cx="10" cy="10" r="10" transform="translate(3 3)" fill="none"/>
      <path id="Path_1240" data-name="Path 1240" d="M3,0H17a3,3,0,0,1,3,3V13a3,3,0,0,1-3,3H3a3,3,0,0,1-3-3V3A3,3,0,0,1,3,0Z" transform="translate(3 5)" fill="none"/>
      <path id="Path_1239" data-name="Path 1239" d="M5-2H15a3,3,0,0,1,3,3V15a3,3,0,0,1-3,3H5a3,3,0,0,1-3-3V1A3,3,0,0,1,5-2Z" transform="translate(3 5)" fill="none"/>
      <path id="Path_1238" data-name="Path 1238" d="M3,0H15a3,3,0,0,1,3,3V15a3,3,0,0,1-3,3H3a3,3,0,0,1-3-3V3A3,3,0,0,1,3,0Z" transform="translate(4 4)" fill="none"/>
      <circle id="Ellipse_89" data-name="Ellipse 89" cx="4" cy="4" r="4" transform="translate(9 9)" fill="none"/>
    </g>
    <g id="home" transform="translate(288.75 44.5)">
      <g id="Path_401" data-name="Path 401" transform="translate(-3.75 -3.724)" fill="none" stroke-linecap="round" stroke-linejoin="round">
        <path d="M21.25,9.854v8.439a3.093,3.093,0,0,1-3,3.182H5.75a3.093,3.093,0,0,1-3-3.182V9.854A3.236,3.236,0,0,1,3.83,7.41l6.25-3.884a3.616,3.616,0,0,1,3.84,0L20.17,7.41A3.236,3.236,0,0,1,21.25,9.854Z" stroke="none"/>
        <path d="M 12.02503967285156 4.474252700805664 C 11.66485595703125 4.474252700805664 11.27440071105957 4.588903427124023 10.83251571655273 4.824577331542969 L 4.744533538818359 8.6075439453125 C 4.429058074951172 8.923798561096191 4.25 9.372151374816895 4.25 9.854071617126465 L 4.25 18.29268264770508 C 4.25 19.21990203857422 4.92289924621582 19.97425079345703 5.75 19.97425079345703 L 18.25 19.97425079345703 C 19.07709884643555 19.97425079345703 19.75 19.21990203857422 19.75 18.29268264770508 L 19.75 9.854071617126465 C 19.75 9.372151374816895 19.57094192504883 8.923798561096191 19.25546646118164 8.6075439453125 L 13.15234661102295 4.81517219543457 C 12.74703502655029 4.585809707641602 12.3780517578125 4.474252700805664 12.02503967285156 4.474252700805664 M 12.02504062652588 2.974250793457031 C 12.64782619476318 2.974250793457031 13.27087688446045 3.153535842895508 13.92000007629395 3.526182174682617 L 20.17000007629395 7.409822463989258 C 20.86000061035156 8.015832901000977 21.25 8.904651641845703 21.25 9.854071617126465 L 21.25 18.29268264770508 C 21.25 20.05012130737305 19.90999984741211 21.47425270080566 18.25 21.47425270080566 L 5.75 21.47425270080566 C 4.090000152587891 21.47425270080566 2.75 20.05012130737305 2.75 18.29268264770508 L 2.75 9.854071617126465 C 2.75 8.904651641845703 3.139999389648438 8.015832901000977 3.829999923706055 7.409822463989258 L 10.07999992370605 3.526182174682617 C 10.74647235870361 3.163305282592773 11.3856143951416 2.974250793457031 12.02504062652588 2.974250793457031 Z" stroke="none" fill="#111"/>
      </g>
      <path id="Path_584" data-name="Path 584" d="M5.2,19.051h7.737" transform="translate(-0.819 -5.155)" fill="none" stroke="#111" stroke-linecap="round" stroke-width="1.5"/>
    </g>
  </g>
</svg>
